<svg id="Credit_card" height="512" viewBox="0 0 512 512" width="512" xmlns="http://www.w3.org/2000/svg" data-name="Credit card"><path d="m432 144v152.44l-80 71.56h-304a32 32 0 0 1 -32-32v-192a32 32 0 0 1 32-32h352a32 32 0 0 1 32 32z" fill="#57565c"/><path d="m48 232h88v40h-88z" fill="#e0e0e2"/><path d="m16 152h416v48h-416z" fill="#acabb1"/><circle cx="424" cy="368" fill="#91cc04" r="72"/><path d="m440 289.61v-145.61a40.045 40.045 0 0 0 -40-40h-352a40.045 40.045 0 0 0 -40 40v192a40.045 40.045 0 0 0 40 40h296.4a80 80 0 1 0 95.6-86.39zm-416-129.61h400v32h-400zm24-40h352a24.027 24.027 0 0 1 24 24h-400a24.027 24.027 0 0 1 24-24zm-24 216v-128h400v80a80.11 80.11 0 0 0 -79.6 72h-296.4a24.027 24.027 0 0 1 -24-24zm400 96a64 64 0 1 1 64-64 64.072 64.072 0 0 1 -64 64z"/><path d="m136 224h-88a8 8 0 0 0 -8 8v40a8 8 0 0 0 8 8h88a8 8 0 0 0 8-8v-40a8 8 0 0 0 -8-8zm-8 40h-72v-24h72z"/><path d="m136 288h-88a8 8 0 0 0 0 16h88a8 8 0 0 0 0-16z"/><path d="m88 312h-40a8 8 0 0 0 0 16h40a8 8 0 0 0 0-16z"/><path d="m120 312h-8a8 8 0 0 0 0 16h8a8 8 0 0 0 0-16z"/><path d="m448 360h-16v-16a8 8 0 0 0 -16 0v16h-16a8 8 0 0 0 0 16h16v16a8 8 0 0 0 16 0v-16h16a8 8 0 0 0 0-16z"/></svg>